# xmcd CD database file
#
# Track frame offsets:
#	150
#	15621
#	27001
#	34882
#	42431
#	52288
#	63892
#	74243
#	82518
#	94736
#	109900
#	118529
#
# Disc length: 1706 seconds
#
# Revision: 0
# Processed by: cddbd v1.5.2PL0 Copyright (c) Steve Scherf et al.
# Submitted via: CDex 1.79
#
DISCID=9e06a80c
DTITLE=Paul Craft - Raised By The Railroad Line
DYEAR=2002
DGENRE=Country
TTITLE0=Raised By The Railroad Line
TTITLE1=A Look Of Leaving
TTITLE2=Honey, Take Your High Heels Off
TTITLE3=The Yodeler
TTITLE4=The First Cup Of Coffee
TTITLE5=Jimmy Rae McBean
TTITLE6=Bring Back The Happy Times
TTITLE7=If Joan Baez Would Fall In Love With Me
TTITLE8=Tallahassee
TTITLE9=The Drinkin`s Got Me Down
TTITLE10=There Ain`t No Instant Replay
TTITLE11=I`m A Travelin` Man
EXTD=YEAR: 2002
EXTT0=
EXTT1=
EXTT2=
EXTT3=
EXTT4=
EXTT5=
EXTT6=
EXTT7=
EXTT8=
EXTT9=
EXTT10=
EXTT11=
PLAYORDER=
